<mxfile host="app.diagrams.net" modified="2024-05-15T07:14:52.103Z" agent="Mozilla/5.0 (Windows NT 10.0; Win64; x64) AppleWebKit/537.36 (KHTML, like Gecko) Chrome/124.0.0.0 Safari/537.36" etag="XRfCLQHyT0zmUgTirK80" version="24.4.0" type="device">
  <diagram name="Страница — 1" id="PBImTYeV2S7VSkpx_dnX">
    <mxGraphModel dx="2261" dy="746" grid="1" gridSize="10" guides="1" tooltips="1" connect="1" arrows="1" fold="1" page="1" pageScale="1" pageWidth="827" pageHeight="1169" math="0" shadow="0">
      <root>
        <mxCell id="0" />
        <mxCell id="1" parent="0" />
        <mxCell id="Wd5DIuu5vNiK5n4zwcmO-1" value="" style="rounded=0;whiteSpace=wrap;html=1;" parent="1" vertex="1">
          <mxGeometry x="-20" y="10" width="880" height="730" as="geometry" />
        </mxCell>
        <mxCell id="Wd5DIuu5vNiK5n4zwcmO-2" style="rounded=0;orthogonalLoop=1;jettySize=auto;html=1;" parent="1" target="Wd5DIuu5vNiK5n4zwcmO-12" edge="1">
          <mxGeometry relative="1" as="geometry">
            <mxPoint x="-50" y="90" as="sourcePoint" />
          </mxGeometry>
        </mxCell>
        <mxCell id="Wd5DIuu5vNiK5n4zwcmO-3" value="Игрок&lt;div&gt;с заболеваниями&lt;/div&gt;" style="shape=umlActor;verticalLabelPosition=bottom;verticalAlign=top;html=1;" parent="1" vertex="1">
          <mxGeometry x="-90" y="70" width="30" height="60" as="geometry" />
        </mxCell>
        <mxCell id="Wd5DIuu5vNiK5n4zwcmO-4" style="rounded=0;orthogonalLoop=1;jettySize=auto;html=1;entryX=0;entryY=0;entryDx=0;entryDy=0;" parent="1" target="Wd5DIuu5vNiK5n4zwcmO-13" edge="1">
          <mxGeometry relative="1" as="geometry">
            <mxPoint x="-40" y="570" as="sourcePoint" />
          </mxGeometry>
        </mxCell>
        <mxCell id="Wd5DIuu5vNiK5n4zwcmO-5" style="rounded=0;orthogonalLoop=1;jettySize=auto;html=1;entryX=0;entryY=0.5;entryDx=0;entryDy=0;" parent="1" target="Wd5DIuu5vNiK5n4zwcmO-23" edge="1">
          <mxGeometry relative="1" as="geometry">
            <mxPoint x="-40" y="550" as="sourcePoint" />
          </mxGeometry>
        </mxCell>
        <mxCell id="Wd5DIuu5vNiK5n4zwcmO-6" value="Член семьи&lt;div&gt;игрока&lt;/div&gt;" style="shape=umlActor;verticalLabelPosition=bottom;verticalAlign=top;html=1;" parent="1" vertex="1">
          <mxGeometry x="-90" y="520" width="30" height="60" as="geometry" />
        </mxCell>
        <mxCell id="Wd5DIuu5vNiK5n4zwcmO-7" style="rounded=0;orthogonalLoop=1;jettySize=auto;html=1;entryX=1;entryY=0.5;entryDx=0;entryDy=0;" parent="1" target="Wd5DIuu5vNiK5n4zwcmO-14" edge="1">
          <mxGeometry relative="1" as="geometry">
            <mxPoint x="880" y="440" as="sourcePoint" />
          </mxGeometry>
        </mxCell>
        <mxCell id="Wd5DIuu5vNiK5n4zwcmO-8" style="rounded=0;orthogonalLoop=1;jettySize=auto;html=1;entryX=1;entryY=0.5;entryDx=0;entryDy=0;" parent="1" target="Wd5DIuu5vNiK5n4zwcmO-22" edge="1">
          <mxGeometry relative="1" as="geometry">
            <mxPoint x="880" y="420" as="sourcePoint" />
          </mxGeometry>
        </mxCell>
        <mxCell id="Wd5DIuu5vNiK5n4zwcmO-9" value="Администратор&lt;div&gt;приложения&lt;/div&gt;" style="shape=umlActor;verticalLabelPosition=bottom;verticalAlign=top;html=1;" parent="1" vertex="1">
          <mxGeometry x="900" y="395" width="30" height="60" as="geometry" />
        </mxCell>
        <mxCell id="Wd5DIuu5vNiK5n4zwcmO-10" value="Выполнить задание" style="ellipse;whiteSpace=wrap;html=1;" parent="1" vertex="1">
          <mxGeometry x="170" y="210" width="140" height="70" as="geometry" />
        </mxCell>
        <mxCell id="Wd5DIuu5vNiK5n4zwcmO-12" value="Указать противопоказания" style="ellipse;whiteSpace=wrap;html=1;" parent="1" vertex="1">
          <mxGeometry x="20" y="30" width="140" height="70" as="geometry" />
        </mxCell>
        <mxCell id="Wd5DIuu5vNiK5n4zwcmO-13" value="Следить за активностью члена семьи" style="ellipse;whiteSpace=wrap;html=1;" parent="1" vertex="1">
          <mxGeometry x="60" y="640" width="140" height="70" as="geometry" />
        </mxCell>
        <mxCell id="Wd5DIuu5vNiK5n4zwcmO-14" value="Изменение расположения объектов на игровой карте" style="ellipse;whiteSpace=wrap;html=1;" parent="1" vertex="1">
          <mxGeometry x="560" y="470" width="140" height="70" as="geometry" />
        </mxCell>
        <mxCell id="Wd5DIuu5vNiK5n4zwcmO-32" style="rounded=0;orthogonalLoop=1;jettySize=auto;html=1;" parent="1" target="Wd5DIuu5vNiK5n4zwcmO-30" edge="1">
          <mxGeometry relative="1" as="geometry">
            <mxPoint x="-30" y="350" as="sourcePoint" />
          </mxGeometry>
        </mxCell>
        <mxCell id="Wd5DIuu5vNiK5n4zwcmO-33" style="rounded=0;orthogonalLoop=1;jettySize=auto;html=1;" parent="1" target="Wd5DIuu5vNiK5n4zwcmO-31" edge="1">
          <mxGeometry relative="1" as="geometry">
            <mxPoint x="-30" y="360" as="sourcePoint" />
          </mxGeometry>
        </mxCell>
        <mxCell id="Wd5DIuu5vNiK5n4zwcmO-35" style="rounded=0;orthogonalLoop=1;jettySize=auto;html=1;entryX=0;entryY=0;entryDx=0;entryDy=0;" parent="1" target="Wd5DIuu5vNiK5n4zwcmO-34" edge="1">
          <mxGeometry relative="1" as="geometry">
            <mxPoint x="-30" y="370" as="sourcePoint" />
          </mxGeometry>
        </mxCell>
        <mxCell id="Wd5DIuu5vNiK5n4zwcmO-16" style="rounded=0;orthogonalLoop=1;jettySize=auto;html=1;entryX=0;entryY=0.5;entryDx=0;entryDy=0;" parent="1" target="Wd5DIuu5vNiK5n4zwcmO-10" edge="1">
          <mxGeometry relative="1" as="geometry">
            <mxPoint x="-30" y="340" as="sourcePoint" />
          </mxGeometry>
        </mxCell>
        <mxCell id="Wd5DIuu5vNiK5n4zwcmO-19" style="rounded=0;orthogonalLoop=1;jettySize=auto;html=1;entryX=0;entryY=0.5;entryDx=0;entryDy=0;" parent="1" target="Wd5DIuu5vNiK5n4zwcmO-24" edge="1">
          <mxGeometry relative="1" as="geometry">
            <mxPoint x="-40" y="320" as="sourcePoint" />
          </mxGeometry>
        </mxCell>
        <mxCell id="Wd5DIuu5vNiK5n4zwcmO-20" value="Игрок" style="shape=umlActor;verticalLabelPosition=bottom;verticalAlign=top;html=1;" parent="1" vertex="1">
          <mxGeometry x="-90" y="320" width="30" height="60" as="geometry" />
        </mxCell>
        <mxCell id="Wd5DIuu5vNiK5n4zwcmO-21" value="Extends" style="endArrow=block;endSize=16;endFill=0;html=1;rounded=0;" parent="1" edge="1">
          <mxGeometry width="160" relative="1" as="geometry">
            <mxPoint x="-75.5" y="180" as="sourcePoint" />
            <mxPoint x="-75.5" y="300" as="targetPoint" />
          </mxGeometry>
        </mxCell>
        <mxCell id="Wd5DIuu5vNiK5n4zwcmO-22" value="Управление игроками" style="ellipse;whiteSpace=wrap;html=1;" parent="1" vertex="1">
          <mxGeometry x="540" y="80" width="140" height="70" as="geometry" />
        </mxCell>
        <mxCell id="Wd5DIuu5vNiK5n4zwcmO-23" value="Сообщить о пропаже" style="ellipse;whiteSpace=wrap;html=1;" parent="1" vertex="1">
          <mxGeometry x="170" y="550" width="140" height="70" as="geometry" />
        </mxCell>
        <mxCell id="Wd5DIuu5vNiK5n4zwcmO-24" value="Добавить члена семьи" style="ellipse;whiteSpace=wrap;html=1;" parent="1" vertex="1">
          <mxGeometry x="30" y="140" width="140" height="70" as="geometry" />
        </mxCell>
        <mxCell id="Wd5DIuu5vNiK5n4zwcmO-25" value="Extends" style="endArrow=block;endSize=16;endFill=0;html=1;rounded=0;" parent="1" edge="1">
          <mxGeometry width="160" relative="1" as="geometry">
            <mxPoint x="-75.5" y="510" as="sourcePoint" />
            <mxPoint x="-75.5" y="420" as="targetPoint" />
          </mxGeometry>
        </mxCell>
        <mxCell id="Wd5DIuu5vNiK5n4zwcmO-26" value="Управление наградами для игроков" style="ellipse;whiteSpace=wrap;html=1;" parent="1" vertex="1">
          <mxGeometry x="580" y="290" width="140" height="70" as="geometry" />
        </mxCell>
        <mxCell id="Wd5DIuu5vNiK5n4zwcmO-27" style="rounded=0;orthogonalLoop=1;jettySize=auto;html=1;entryX=1;entryY=0.5;entryDx=0;entryDy=0;" parent="1" target="Wd5DIuu5vNiK5n4zwcmO-26" edge="1">
          <mxGeometry relative="1" as="geometry">
            <mxPoint x="880" y="430" as="sourcePoint" />
            <mxPoint x="620" y="355" as="targetPoint" />
          </mxGeometry>
        </mxCell>
        <mxCell id="Wd5DIuu5vNiK5n4zwcmO-28" value="Управление заданиями для игроков" style="ellipse;whiteSpace=wrap;html=1;" parent="1" vertex="1">
          <mxGeometry x="490" y="600" width="140" height="70" as="geometry" />
        </mxCell>
        <mxCell id="Wd5DIuu5vNiK5n4zwcmO-29" style="rounded=0;orthogonalLoop=1;jettySize=auto;html=1;entryX=1;entryY=0.5;entryDx=0;entryDy=0;" parent="1" target="Wd5DIuu5vNiK5n4zwcmO-28" edge="1">
          <mxGeometry relative="1" as="geometry">
            <mxPoint x="870" y="460" as="sourcePoint" />
            <mxPoint x="650" y="582.5" as="targetPoint" />
          </mxGeometry>
        </mxCell>
        <mxCell id="Wd5DIuu5vNiK5n4zwcmO-30" value="Улучшить экипировку" style="ellipse;whiteSpace=wrap;html=1;" parent="1" vertex="1">
          <mxGeometry x="390" y="230" width="140" height="70" as="geometry" />
        </mxCell>
        <mxCell id="Wd5DIuu5vNiK5n4zwcmO-31" value="Изменить характеристику" style="ellipse;whiteSpace=wrap;html=1;" parent="1" vertex="1">
          <mxGeometry x="390" y="380" width="140" height="70" as="geometry" />
        </mxCell>
        <mxCell id="Wd5DIuu5vNiK5n4zwcmO-34" value="Прокачать навык" style="ellipse;whiteSpace=wrap;html=1;" parent="1" vertex="1">
          <mxGeometry x="140" y="410" width="140" height="70" as="geometry" />
        </mxCell>
      </root>
    </mxGraphModel>
  </diagram>
</mxfile>
